<svg height="200" viewBox="0 0 200 200" width="200" xmlns="http://www.w3.org/2000/svg"><path d="m63.39507 144.6996h73.20987zm36.60522-132.853315a88.153704 88.153695 0 0 0 -.0363.0012l35.12242 59.641718h-70.336083l35.120729-59.638274a88.153704 88.153695 0 0 0 -88.024812 88.149431 88.153704 88.153695 0 0 0 11.058994 42.54666l37.872782-64.312131 2.61705-4.444251v70.908962h-39.254581a88.153704 88.153695 0 0 0 75.859801 43.4542 88.153704 88.153695 0 0 0 75.86846-43.4542h-39.26381v-70.631476l2.45377 4.166736 37.99856 64.52618a88.153704 88.153695 0 0 0 11.09649-42.76071 88.153704 88.153695 0 0 0 -88.15347-88.154045zm36.10743 96.612105a36.282723 36.282723 0 0 1 -36.282724 36.28273 36.282723 36.282723 0 0 1 -36.282723-36.28273 36.282723 36.282723 0 0 1 36.282723-36.282721 36.282723 36.282723 0 0 1 36.282724 36.282721z" fill="none" stroke="#000" stroke-width="3.692485"/></svg>