<svg height="666.66669" viewBox="0 0 666.66669 666.66669" width="666.66669" xmlns="http://www.w3.org/2000/svg"><path d="m209.41602 484.65234h247.83398zm123.91796-449.742184a298.42267 298.42264 0 0 0 -.12304.0039l118.89844 201.902354h-238.10547l118.89257-201.890629a298.42267 298.42264 0 0 0 -297.986324 298.408199 298.42267 298.42264 0 0 0 37.4375 144.03125l128.208984-217.71289 8.85938-15.04492v240.04492h-132.886723a298.42267 298.42264 0 0 0 256.804683 147.10352 298.42267 298.42264 0 0 0 256.83399-147.10352h-132.91797v-239.10546l8.30664 14.10546 128.63477 218.4375a298.42267 298.42264 0 0 0 37.56445-144.75586 298.42267 298.42264 0 0 0 -298.42188-298.423824zm122.23282 327.056514a122.82623 122.82623 0 0 1 -122.82623 122.82624 122.82623 122.82623 0 0 1 -122.82623-122.82624 122.82623 122.82623 0 0 1 122.82623-122.82623 122.82623 122.82623 0 0 1 122.82623 122.82623z" fill="none" stroke="#000" stroke-width="12.5"/></svg>